# xmcd CD database file
#
# Track frame offsets:
#	150
#	18841
#	29335
#	58560
#
# Disc length: 2177 seconds
#
# Revision: 0
# Processed by: cddbd v1.4PL0 Copyright (c) Steve Scherf et al.
# Submitted via: Feurio! 1.66 - http://www.feurio.com
#
DISCID=26087f04
DTITLE=Dixie Chicks - Long Time Gone
DYEAR=1900
DGENRE=Country
TTITLE0=Long Time Gone
TTITLE1=White Trash Wedding
TTITLE2=Long Time Gone (Live from Kodak Theatre)
TTITLE3=Long Time Gone (Video
EXTD=
EXTT0=
EXTT1=
EXTT2=
EXTT3=
PLAYORDER=
